<?xml version="1.0" standalone="no"?>
<!DOCTYPE svg PUBLIC "-//W3C//DTD SVG 20010904//EN"
 "http://www.w3.org/TR/2001/REC-SVG-20010904/DTD/svg10.dtd">
<svg version="1.0" xmlns="http://www.w3.org/2000/svg"
 width="650.000000pt" height="650.000000pt" viewBox="0 0 650.000000 650.000000"
 preserveAspectRatio="xMidYMid meet">
<metadata>
Created by potrace 1.11, written by Peter Selinger 2001-2013
</metadata>
<g transform="translate(0.000000,650.000000) scale(0.100000,-0.100000)"
fill="#000000" stroke="none">
<path d="M4275 6405 c-283 -63 -498 -248 -594 -512 -187 -512 193 -1060 739
-1065 120 -1 192 12 301 53 232 89 415 294 481 538 28 104 30 297 4 396 -36
136 -136 308 -228 391 -92 84 -212 150 -330 185 -92 27 -284 34 -373 14z"/>
<path d="M935 5687 c-91 -45 -139 -111 -150 -206 -27 -240 261 -381 433 -213
61 59 85 123 77 205 -11 135 -106 225 -245 234 -54 3 -73 0 -115 -20z"/>
<path d="M2680 5343 c-218 -28 -365 -198 -355 -410 6 -123 55 -215 153 -292
144 -112 366 -101 499 26 135 128 163 326 70 486 -55 93 -173 172 -274 183
-26 3 -52 6 -58 8 -5 1 -21 0 -35 -1z"/>
<path d="M1089 4701 c-161 -56 -214 -182 -154 -365 27 -83 57 -146 175 -366
116 -217 140 -309 145 -555 4 -169 -5 -262 -35 -365 -14 -50 -12 -72 4 -30 7
19 30 80 50 135 21 55 42 109 47 120 5 11 34 95 63 186 185 566 204 812 85
1051 -77 154 -245 237 -380 189z"/>
<path d="M3860 4525 c-150 -28 -335 -106 -510 -217 -47 -29 -166 -113 -266
-186 -221 -161 -429 -288 -699 -427 -119 -61 -200 -95 -227 -95 -20 0 -20 1
-3 28 23 35 75 85 206 199 128 111 152 154 153 273 0 119 -57 219 -153 267
-54 27 -210 24 -272 -5 -160 -75 -266 -252 -414 -687 -100 -294 -107 -309
-270 -610 -249 -458 -372 -778 -419 -1090 -13 -82 -14 -336 -3 -390 3 -11 8
-45 12 -75 26 -203 121 -561 220 -825 81 -216 198 -466 245 -525 l21 -25 -17
40 c-90 212 -170 487 -200 685 -21 135 -24 400 -6 506 28 170 82 310 167 439
165 249 375 368 645 368 142 -1 250 -24 565 -122 386 -121 537 -131 692 -47
124 68 249 239 289 397 74 288 -174 541 -531 541 -116 0 -171 -13 -460 -108
-369 -121 -437 -138 -566 -139 -99 0 -108 2 -148 28 -82 55 -117 191 -75 298
103 264 506 482 889 482 133 0 204 -16 420 -93 415 -147 599 -191 800 -191
304 1 547 172 691 486 131 287 54 557 -207 731 -114 75 -188 96 -354 100 -88
1 -168 -3 -215 -11z"/>
<path d="M4848 3334 c-187 -43 -337 -198 -372 -383 -56 -293 161 -566 457
-576 388 -13 632 400 434 738 -100 171 -324 266 -519 221z"/>
</g>
</svg>
